<svg xmlns="http://www.w3.org/2000/svg" xmlns:xlink="http://www.w3.org/1999/xlink" width="500" zoomAndPan="magnify" viewBox="0 0 375 374.999991" height="500" preserveAspectRatio="xMidYMid meet" version="1.0"><defs><g/><clipPath id="bf8f7a583f"><path d="M 33 147 L 134 147 L 134 243.285156 L 33 243.285156 Z M 33 147 " clip-rule="nonzero"/></clipPath><clipPath id="631bcda8bc"><path d="M 78 131.535156 L 89 131.535156 L 89 170 L 78 170 Z M 78 131.535156 " clip-rule="nonzero"/></clipPath><clipPath id="e1fa1d11ea"><path d="M 134.230469 232.066406 L 145.480469 232.066406 L 145.480469 243.316406 L 134.230469 243.316406 Z M 134.230469 232.066406 " clip-rule="nonzero"/></clipPath><clipPath id="8044863f7e"><path d="M 226.476562 232.066406 L 237.726562 232.066406 L 237.726562 243.316406 L 226.476562 243.316406 Z M 226.476562 232.066406 " clip-rule="nonzero"/></clipPath></defs><g fill="#000000" fill-opacity="1"><g transform="translate(142.823652, 239.777455)"><g><path d="M 43.40625 -97.515625 C 54.300781 -97.515625 62.914062 -94.96875 69.25 -89.875 C 75.59375 -84.789062 78.988281 -77.785156 79.4375 -68.859375 L 67.25 -68.046875 C 66.53125 -74.210938 64.296875 -78.765625 60.546875 -81.703125 C 56.796875 -84.648438 51.257812 -86.125 43.9375 -86.125 C 36.96875 -86.125 31.5625 -84.851562 27.71875 -82.3125 C 23.882812 -79.769531 21.96875 -76.3125 21.96875 -71.9375 C 21.96875 -69.070312 22.816406 -66.632812 24.515625 -64.625 C 26.210938 -62.625 28.625 -61.175781 31.75 -60.28125 C 32.457031 -60.101562 35.085938 -59.320312 39.640625 -57.9375 C 44.203125 -56.550781 50.007812 -55.097656 57.0625 -53.578125 C 65.457031 -51.703125 71.753906 -48.351562 75.953125 -43.53125 C 80.148438 -38.707031 82.25 -33.21875 82.25 -27.0625 C 82.25 -21.882812 80.84375 -17.101562 78.03125 -12.71875 C 75.21875 -8.34375 71.128906 -4.859375 65.765625 -2.265625 C 60.410156 0.316406 54.070312 1.609375 46.75 1.609375 C 38.351562 1.609375 31.117188 0.269531 25.046875 -2.40625 C 18.972656 -5.09375 14.328125 -8.867188 11.109375 -13.734375 C 7.898438 -18.597656 6.207031 -24.289062 6.03125 -30.8125 L 18.078125 -31.875 C 18.617188 -24.289062 21.613281 -18.710938 27.0625 -15.140625 C 32.507812 -11.566406 38.9375 -9.78125 46.34375 -9.78125 C 53.757812 -9.78125 59.585938 -11.296875 63.828125 -14.328125 C 68.066406 -17.367188 70.1875 -21.476562 70.1875 -26.65625 C 70.1875 -33.707031 64.515625 -38.617188 53.171875 -41.390625 L 45.671875 -43.265625 C 41.035156 -44.335938 35.679688 -45.765625 29.609375 -47.546875 C 23.441406 -49.335938 18.613281 -52.351562 15.125 -56.59375 C 11.644531 -60.832031 9.90625 -65.675781 9.90625 -71.125 C 9.90625 -76.125 11.242188 -80.632812 13.921875 -84.65625 C 16.609375 -88.675781 20.472656 -91.820312 25.515625 -94.09375 C 30.566406 -96.375 36.53125 -97.515625 43.40625 -97.515625 Z M 43.40625 -97.515625 "/></g></g></g><g clip-path="url(#bf8f7a583f)"><path fill="#000000" d="M 83.511719 243.285156 C 111.167969 243.285156 133.671875 220.800781 133.671875 193.160156 C 133.671875 174.0625 122.5625 156.371094 105.371094 148.089844 C 102.683594 146.789062 99.441406 147.917969 98.144531 150.613281 C 96.847656 153.304688 97.980469 156.535156 100.671875 157.828125 C 114.144531 164.320312 122.851562 178.1875 122.851562 193.160156 C 122.847656 214.835938 105.203125 232.472656 83.511719 232.472656 C 61.820312 232.472656 44.175781 214.835938 44.175781 193.160156 C 44.175781 178.1875 52.878906 164.320312 66.351562 157.828125 C 69.042969 156.535156 70.175781 153.300781 68.875 150.613281 C 67.578125 147.921875 64.347656 146.789062 61.652344 148.089844 C 44.460938 156.371094 33.355469 174.0625 33.355469 193.160156 C 33.355469 220.800781 55.855469 243.285156 83.511719 243.285156 Z M 83.511719 243.285156 " fill-opacity="1" fill-rule="nonzero"/></g><g clip-path="url(#631bcda8bc)"><path fill="#000000" d="M 83.511719 169.820312 C 86.5 169.820312 88.921875 167.398438 88.921875 164.414062 L 88.921875 136.945312 C 88.921875 133.957031 86.5 131.535156 83.511719 131.535156 C 80.523438 131.535156 78.101562 133.957031 78.101562 136.945312 L 78.101562 164.414062 C 78.101562 167.398438 80.523438 169.820312 83.511719 169.820312 Z M 83.511719 169.820312 " fill-opacity="1" fill-rule="nonzero"/></g><g clip-path="url(#e1fa1d11ea)"><path fill="#000000" d="M 145.621094 237.761719 C 145.621094 238.136719 145.585938 238.507812 145.511719 238.875 C 145.441406 239.238281 145.332031 239.597656 145.1875 239.941406 C 145.046875 240.289062 144.871094 240.617188 144.664062 240.925781 C 144.453125 241.238281 144.21875 241.523438 143.953125 241.789062 C 143.691406 242.054688 143.402344 242.289062 143.089844 242.496094 C 142.78125 242.707031 142.453125 242.882812 142.105469 243.023438 C 141.761719 243.167969 141.40625 243.273438 141.039062 243.347656 C 140.671875 243.421875 140.300781 243.457031 139.925781 243.457031 C 139.554688 243.457031 139.183594 243.421875 138.816406 243.347656 C 138.449219 243.273438 138.09375 243.167969 137.746094 243.023438 C 137.402344 242.882812 137.074219 242.707031 136.761719 242.496094 C 136.453125 242.289062 136.164062 242.054688 135.898438 241.789062 C 135.636719 241.523438 135.398438 241.238281 135.191406 240.925781 C 134.984375 240.617188 134.808594 240.289062 134.664062 239.941406 C 134.523438 239.597656 134.414062 239.238281 134.339844 238.875 C 134.269531 238.507812 134.230469 238.136719 134.230469 237.761719 C 134.230469 237.386719 134.269531 237.019531 134.339844 236.652344 C 134.414062 236.285156 134.523438 235.929688 134.664062 235.582031 C 134.808594 235.238281 134.984375 234.910156 135.191406 234.597656 C 135.398438 234.289062 135.636719 234 135.898438 233.734375 C 136.164062 233.472656 136.453125 233.234375 136.761719 233.027344 C 137.074219 232.820312 137.402344 232.644531 137.746094 232.5 C 138.09375 232.359375 138.449219 232.25 138.816406 232.175781 C 139.183594 232.105469 139.554688 232.066406 139.925781 232.066406 C 140.300781 232.066406 140.671875 232.105469 141.039062 232.175781 C 141.40625 232.25 141.761719 232.359375 142.105469 232.5 C 142.453125 232.644531 142.78125 232.820312 143.089844 233.027344 C 143.402344 233.234375 143.691406 233.472656 143.953125 233.734375 C 144.21875 234 144.453125 234.289062 144.664062 234.597656 C 144.871094 234.910156 145.046875 235.238281 145.1875 235.582031 C 145.332031 235.929688 145.441406 236.285156 145.511719 236.652344 C 145.585938 237.019531 145.621094 237.386719 145.621094 237.761719 Z M 145.621094 237.761719 " fill-opacity="1" fill-rule="nonzero"/></g><g clip-path="url(#8044863f7e)"><path fill="#000000" d="M 237.867188 237.761719 C 237.867188 238.136719 237.832031 238.507812 237.757812 238.875 C 237.6875 239.238281 237.578125 239.597656 237.433594 239.941406 C 237.292969 240.289062 237.117188 240.617188 236.910156 240.925781 C 236.699219 241.238281 236.464844 241.523438 236.199219 241.789062 C 235.9375 242.054688 235.648438 242.289062 235.335938 242.496094 C 235.027344 242.707031 234.699219 242.882812 234.351562 243.023438 C 234.007812 243.167969 233.652344 243.273438 233.285156 243.347656 C 232.917969 243.421875 232.546875 243.457031 232.171875 243.457031 C 231.800781 243.457031 231.429688 243.421875 231.0625 243.347656 C 230.695312 243.273438 230.339844 243.167969 229.992188 243.023438 C 229.648438 242.882812 229.320312 242.707031 229.007812 242.496094 C 228.699219 242.289062 228.410156 242.054688 228.144531 241.789062 C 227.882812 241.523438 227.644531 241.238281 227.4375 240.925781 C 227.230469 240.617188 227.054688 240.289062 226.910156 239.941406 C 226.769531 239.597656 226.660156 239.238281 226.585938 238.875 C 226.515625 238.507812 226.476562 238.136719 226.476562 237.761719 C 226.476562 237.386719 226.515625 237.019531 226.585938 236.652344 C 226.660156 236.285156 226.769531 235.929688 226.910156 235.582031 C 227.054688 235.238281 227.230469 234.910156 227.4375 234.597656 C 227.644531 234.289062 227.882812 234 228.144531 233.734375 C 228.410156 233.472656 228.699219 233.234375 229.007812 233.027344 C 229.320312 232.820312 229.648438 232.644531 229.992188 232.5 C 230.339844 232.359375 230.695312 232.25 231.0625 232.175781 C 231.429688 232.105469 231.800781 232.066406 232.171875 232.066406 C 232.546875 232.066406 232.917969 232.105469 233.285156 232.175781 C 233.652344 232.25 234.007812 232.359375 234.351562 232.5 C 234.699219 232.644531 235.027344 232.820312 235.335938 233.027344 C 235.648438 233.234375 235.9375 233.472656 236.199219 233.734375 C 236.464844 234 236.699219 234.289062 236.910156 234.597656 C 237.117188 234.910156 237.292969 235.238281 237.433594 235.582031 C 237.578125 235.929688 237.6875 236.285156 237.757812 236.652344 C 237.832031 237.019531 237.867188 237.386719 237.867188 237.761719 Z M 237.867188 237.761719 " fill-opacity="1" fill-rule="nonzero"/></g><g fill="#000000" fill-opacity="1"><g transform="translate(237.87453, 241.715215)"><g><path d="M 43.40625 -97.515625 C 54.300781 -97.515625 62.914062 -94.96875 69.25 -89.875 C 75.59375 -84.789062 78.988281 -77.785156 79.4375 -68.859375 L 67.25 -68.046875 C 66.53125 -74.210938 64.296875 -78.765625 60.546875 -81.703125 C 56.796875 -84.648438 51.257812 -86.125 43.9375 -86.125 C 36.96875 -86.125 31.5625 -84.851562 27.71875 -82.3125 C 23.882812 -79.769531 21.96875 -76.3125 21.96875 -71.9375 C 21.96875 -69.070312 22.816406 -66.632812 24.515625 -64.625 C 26.210938 -62.625 28.625 -61.175781 31.75 -60.28125 C 32.457031 -60.101562 35.085938 -59.320312 39.640625 -57.9375 C 44.203125 -56.550781 50.007812 -55.097656 57.0625 -53.578125 C 65.457031 -51.703125 71.753906 -48.351562 75.953125 -43.53125 C 80.148438 -38.707031 82.25 -33.21875 82.25 -27.0625 C 82.25 -21.882812 80.84375 -17.101562 78.03125 -12.71875 C 75.21875 -8.34375 71.128906 -4.859375 65.765625 -2.265625 C 60.410156 0.316406 54.070312 1.609375 46.75 1.609375 C 38.351562 1.609375 31.117188 0.269531 25.046875 -2.40625 C 18.972656 -5.09375 14.328125 -8.867188 11.109375 -13.734375 C 7.898438 -18.597656 6.207031 -24.289062 6.03125 -30.8125 L 18.078125 -31.875 C 18.617188 -24.289062 21.613281 -18.710938 27.0625 -15.140625 C 32.507812 -11.566406 38.9375 -9.78125 46.34375 -9.78125 C 53.757812 -9.78125 59.585938 -11.296875 63.828125 -14.328125 C 68.066406 -17.367188 70.1875 -21.476562 70.1875 -26.65625 C 70.1875 -33.707031 64.515625 -38.617188 53.171875 -41.390625 L 45.671875 -43.265625 C 41.035156 -44.335938 35.679688 -45.765625 29.609375 -47.546875 C 23.441406 -49.335938 18.613281 -52.351562 15.125 -56.59375 C 11.644531 -60.832031 9.90625 -65.675781 9.90625 -71.125 C 9.90625 -76.125 11.242188 -80.632812 13.921875 -84.65625 C 16.609375 -88.675781 20.472656 -91.820312 25.515625 -94.09375 C 30.566406 -96.375 36.53125 -97.515625 43.40625 -97.515625 Z M 43.40625 -97.515625 "/></g></g></g></svg>